<svg width="68" height="20" viewBox="0 0 68 20" fill="none" xmlns="http://www.w3.org/2000/svg">
<path d="M3.40001 11.92V0.999989H0.200012V15H8.40001V11.92H3.40001Z" fill="#0B0D17"/>
<path d="M16.8717 4.99999V5.93999C16.2117 5.17999 15.2317 4.71999 13.8917 4.71999C11.2717 4.71999 9.11173 7.01999 9.11173 9.99999C9.11173 12.98 11.2717 15.28 13.8917 15.28C15.2317 15.28 16.2117 14.82 16.8717 14.06V15H19.8717V4.99999H16.8717ZM14.4917 12.44C13.1117 12.44 12.1117 11.5 12.1117 9.99999C12.1117 8.49999 13.1117 7.55999 14.4917 7.55999C15.8717 7.55999 16.8717 8.49999 16.8717 9.99999C16.8717 11.5 15.8717 12.44 14.4917 12.44Z" fill="#0B0D17"/>
<path d="M27.9327 4.71999C26.6127 4.71999 25.6127 5.19999 25.0727 5.93999V4.99999H22.0727V15H25.0727V9.53999C25.0727 8.11999 25.8327 7.47999 26.9327 7.47999C27.8927 7.47999 28.6727 8.05999 28.6727 9.29999V15H31.6727V8.85999C31.6727 6.15999 29.9527 4.71999 27.9327 4.71999Z" fill="#0B0D17"/>
<path d="M40.9928 0.999989V5.93999C40.3328 5.17999 39.3528 4.71999 38.0128 4.71999C35.3928 4.71999 33.2328 7.01999 33.2328 9.99999C33.2328 12.98 35.3928 15.28 38.0128 15.28C39.3528 15.28 40.3328 14.82 40.9928 14.06V15H43.9928V0.999989H40.9928ZM38.6128 12.44C37.2328 12.44 36.2328 11.5 36.2328 9.99999C36.2328 8.49999 37.2328 7.55999 38.6128 7.55999C39.9928 7.55999 40.9928 8.49999 40.9928 9.99999C40.9928 11.5 39.9928 12.44 38.6128 12.44Z" fill="#0B0D17"/>
<path d="M47.6938 4.11999C48.6738 4.11999 49.4938 3.29999 49.4938 2.31999C49.4938 1.33999 48.6738 0.519989 47.6938 0.519989C46.7138 0.519989 45.8938 1.33999 45.8938 2.31999C45.8938 3.29999 46.7138 4.11999 47.6938 4.11999ZM46.1938 15H49.1938V4.99999H46.1938V15Z" fill="#0B0D17"/>
<path d="M56.8891 3.59999V0.719989C53.5691 0.519989 52.0291 2.19999 52.0291 4.99999H50.6891V7.87999H52.0291V15H55.0291V7.87999H56.8891V4.99999H55.0291C55.0291 3.83999 55.7691 3.49999 56.8891 3.59999Z" fill="#0B0D17"/>
<path d="M64.6813 4.99999L62.8013 11.12L60.5813 4.99999H57.2813L61.2613 14.54C60.8213 15.76 60.1613 16.2 58.7613 16.2V19C61.5613 19.14 63.3413 17.88 64.4613 14.7L67.8813 4.99999H64.6813Z" fill="#0B0D17"/>
</svg>
